<svg width="1024" height="1024" viewBox="0 0 1024 1024" fill="none" xmlns="http://www.w3.org/2000/svg">
  <rect width="1024" height="1024" rx="281.6" fill="#FF0421" />
  <path
    d="M752.102 360.629H568.948L525.85 666.294H613.536L623.95 592.263H723.667C813.747 592.263 858.636 556.145 868.812 478.834C879.289 399.135 841.58 360.629 752.096 360.629H752.102ZM779.936 473.465C776.345 506.302 757.491 520.627 719.782 520.627H634.032L646.464 432.272H736.243C770.361 432.272 783.232 443.915 779.936 473.465Z"
    fill="#FAFAF9"
  />
  <path
    d="M352.87 353.466C233.465 353.466 170.918 403.616 156.25 511.077C141.286 620.925 192.761 673.462 315.161 673.462C437.561 673.462 496.818 623.313 511.48 515.852C526.45 406.003 475.276 353.466 352.87 353.466ZM422.303 511.077C414.22 571.676 383.698 598.838 319.954 598.838C260.102 598.838 237.657 574.957 245.433 515.852C253.516 454.959 284.639 428.09 347.782 428.09C410.924 428.09 430.079 452.271 422.303 511.077Z"
    fill="#FAFAF9"
  />
</svg>
