<svg xmlns="http://www.w3.org/2000/svg" width="39" height="39" viewBox="0 0 39 39" fill="none"><script xmlns="" type="text/javascript"/>
<g clip-path="url(#clip0_5181_4625)">
<path d="M37.4625 18.9462C37.4625 9.0089 29.4067 0.953125 19.4694 0.953125C9.5321 0.953125 1.47632 9.0089 1.47632 18.9462C1.47632 28.8835 9.5321 36.9393 19.4694 36.9393C29.4067 36.9393 37.4625 28.8835 37.4625 18.9462Z" fill="white"/>
<path d="M37.4625 18.9462C37.4625 9.0089 29.4067 0.953125 19.4694 0.953125C9.5321 0.953125 1.47632 9.0089 1.47632 18.9462C1.47632 28.8835 9.5321 36.9393 19.4694 36.9393C29.4067 36.9393 37.4625 28.8835 37.4625 18.9462Z" stroke="black" stroke-width="1.14183"/>
<path fill-rule="evenodd" clip-rule="evenodd" d="M15.4074 10.2778H15.0028L14.7406 10.5859L8.11952 18.3628L7.63623 18.9305L8.11952 19.4982L14.7406 27.2751L15.0028 27.5832H15.4074H27.3277H28.2033V26.7075V21.7634H26.452V25.8318H17.3223L22.7958 19.5033L23.2912 18.9305L22.7958 18.3577L17.3223 12.0292H26.452V16.0975H28.2033V11.1535V10.2778H27.3277H15.4074ZM15.4125 12.4983L9.93628 18.9305L15.4125 25.3627L20.9757 18.9305L15.4125 12.4983Z" fill="black"/>
</g>
<circle cx="19.5" cy="19.5" r="17.5" stroke="#1BE3C2" stroke-width="2"/>
<defs>
<clipPath id="clip0_5181_4625">
<rect width="37.1892" height="38.0541" fill="white" transform="translate(0.905396 0.0405273)"/>
</clipPath>
</defs>
<script xmlns=""/></svg>