<svg xmlns="http://www.w3.org/2000/svg" width="43" height="44" viewBox="0 0 43 44" fill="none"><script xmlns="" type="text/javascript"/>
<g clip-path="url(#clip0_5181_4618)">
<path d="M42.2692 21.8597C42.2692 10.3697 32.9547 1.05518 21.4647 1.05518C9.97465 1.05518 0.660156 10.3697 0.660156 21.8597C0.660156 33.3497 9.97465 42.6642 21.4647 42.6642C32.9547 42.6642 42.2692 33.3497 42.2692 21.8597Z" fill="white"/>
<path d="M42.2692 21.8597C42.2692 10.3697 32.9547 1.05518 21.4647 1.05518C9.97465 1.05518 0.660156 10.3697 0.660156 21.8597C0.660156 33.3497 9.97465 42.6642 21.4647 42.6642C32.9547 42.6642 42.2692 33.3497 42.2692 21.8597Z" stroke="black" stroke-width="1.32024"/>
<path fill-rule="evenodd" clip-rule="evenodd" d="M16.7679 11.8369H16.3001L15.9969 12.1931L8.34127 21.1852L7.78247 21.8415L8.34127 22.4979L15.9969 31.49L16.3001 31.8462H16.7679H30.5507H31.5632V30.8337V25.1171H29.5382V29.8212H18.982L25.3107 22.5038L25.8835 21.8415L25.3107 21.1792L18.982 13.8619H29.5382V18.5659H31.5632V12.8494V11.8369H30.5507H16.7679ZM16.7738 14.4043L10.4419 21.8415L16.7738 29.2788L23.2062 21.8415L16.7738 14.4043Z" fill="black"/>
</g>
<defs>
<clipPath id="clip0_5181_4618">
<rect width="43" height="44" fill="white"/>
</clipPath>
</defs>
<script xmlns=""/></svg>